# xmcd
#
# Track frame offsets: 
#        150
#        11470
#        24983
#        36751
#        48901
#        61608
#        73725
#        87760
#        99059
#        111578
#        123634
#        136985
#        147976
#        161627
#        173028
#        185208
#        198252
#        209165
#        220212
#        229346
#        241115
#        253083
#        264936
#        276233
#        286820
#        299522
#        308549
#        318521
#        328796
#        339709
#
# Disc length: 4673 seconds
#
# Revision: 0
# Processed by: cddbd v1.5.2PL0 Copyright (c) Steve Scherf et al.
# Submitted via: ExactAudioCopyFreeDBPlugin 1.0
#
DISCID=c5123f1e
DTITLE=Various Artist - Paul Gayten: Ain't Nothin' Happenin' (Cool Ju
DTITLE=mp Blues 1947-1957)
DYEAR=2014
DGENRE=R&B
TTITLE0=Paul Gayten - Your Hands Ain't Clean
TTITLE1=Annie Laurie - I Still Love You
TTITLE2=Larry Darnell - For You My Love
TTITLE3=Mr Google Eyes - Young Boy
TTITLE4=Annie Laurie - Annie's Blues
TTITLE5=Annie Laurie - One Sweet Letter From You
TTITLE6=Lee Allen - Gayten's Nightmare
TTITLE7=Paul Gayten - Creole Gal
TTITLE8=Annie Laurie - Cuttin' Out
TTITLE9=Paul Gayten - Hey Little Girl
TTITLE10=Paul Gayten - Back Trackin' (aka Doctor Daddy-O)
TTITLE11=Annie Laurie - My Rough And Ready Man
TTITLE12=Annie Laurie and Paul Gayten - I'll Never Be Free
TTITLE13=Annie Laurie and Paul Gayten - I Ain't Gonna Let You In
TTITLE14=Paul Gayten - Yellow Dog
TTITLE15=Paul Gayten - Yeah Yeah Yeah
TTITLE16=Paul Gayten - Oooh-La-La
TTITLE17=Paul Gayten - It Ain't Nothin' Happenin'
TTITLE18=Paul Gayten - Cow Cow Blues
TTITLE19=Paul Gayten - Down Boy
TTITLE20=Paul Gayten - If You Love Me, Tell Me So
TTITLE21=Paul Gayten - The Sweeper
TTITLE22=Paul Gayten - Get It
TTITLE23=Paul Gayten - You Better Believe It
TTITLE24=Lee Allen - Drivin' Home (Part 2)
TTITLE25=Paul Gayten - The Music Goes Round And Round
TTITLE26=Charles Hungry Williams - So Glad She's Mine
TTITLE27=Paul Gayten - Nervous Boogie
TTITLE28=Paul Gayten - For You My Love
TTITLE29=Paul Gayten - Tickle Toe
EXTD=
EXTT0=
EXTT1=
EXTT2=
EXTT3=
EXTT4=
EXTT5=
EXTT6=
EXTT7=
EXTT8=
EXTT9=
EXTT10=
EXTT11=
EXTT12=
EXTT13=
EXTT14=
EXTT15=
EXTT16=
EXTT17=
EXTT18=
EXTT19=
EXTT20=
EXTT21=
EXTT22=
EXTT23=
EXTT24=
EXTT25=
EXTT26=
EXTT27=
EXTT28=
EXTT29=
PLAYORDER=
